<?xml version="1.0" encoding="UTF-8"?><svg id="Layer_2" xmlns="http://www.w3.org/2000/svg" viewBox="0 0 351.2281 56.0201"><g id="Components"><g id="caa2babb-b83d-4a73-88b0-8c7155e1951e_5"><path d="M138.9276,27.7858c-1.1486-.5077-2.4351-.915-3.8448-1.2322.5541-.2539,1.0827-.5239,1.5674-.8218,2.39-1.4683,4.1322-3.2737,5.2279-5.4151,1.0957-2.1408,1.6435-4.3815,1.6435-6.7226,0-4.2316-1.4322-7.5559-4.2942-9.9717-2.8643-2.4147-6.8852-3.6223-12.0637-3.6223h-38.9152l.3733,27.2633-.3733,28.7569h40.3347c4.1322,0,7.5811-.6724,10.3444-2.0167,2.7644-1.3443,4.8432-3.1991,6.2374-5.5644,1.3931-2.3647,2.0914-5.0418,2.0914-8.0296,0-2.8385-.6856-5.341-2.0546-7.5071-1.3701-2.166-3.4615-3.871-6.2742-5.1165ZM127.537,11.6893c1.145,1.0715,1.7181,2.4279,1.7181,4.0708,0,2.0426-.6719,3.6487-2.0167,4.8179-1.3449,1.1703-3.0377,1.7555-5.0786,1.7555h-20.0181v-12.2497h20.3913c2.1902,0,3.8578.5352,5.0039,1.6056ZM130.9353,44.181c-1.3701,1.1709-3.2743,1.7555-5.7137,1.7555h-23.0799v-13.7439h21.8097c2.9884,0,5.2405.6351,6.76,1.9048,1.5183,1.2702,2.2786,2.9763,2.2786,5.1165,0,2.1419-.6856,3.798-2.0546,4.9672Z" style="fill:#fff;"/><rect x="154.6515" width="14.1171" height="56.0201" style="fill:#fff;"/><path d="M223.727,3.5103c-4.9304-2.34-10.682-3.5103-17.2548-3.5103h-27.3373v56.0201h27.3373c6.5728,0,12.3244-1.1692,17.2548-3.5103,4.9293-2.34,8.7767-5.6138,11.54-9.8224,2.7632-4.2075,4.1449-9.1,4.1449-14.6776,0-5.6264-1.3816-10.5316-4.1449-14.7144-2.7632-4.1828-6.6107-7.4439-11.54-9.7851ZM222.9793,36.1887c-1.4448,2.3159-3.4856,4.1213-6.1249,5.4157-2.6392,1.2955-5.7516,1.9421-9.336,1.9421h-14.3411V12.4737h14.3411c3.5844,0,6.6968.6477,9.336,1.9421,2.6392,1.2955,4.6801,3.0883,6.1249,5.3778,1.4436,2.2912,2.166,5.0304,2.166,8.2162,0,3.1371-.7224,5.8636-2.166,8.1789Z" style="fill:#fff;"/><polygon points="288.3808 0 262.5365 56.0201 277.5506 56.0201 297.4966 10.8023 317.5109 56.0201 332.525 56.0201 306.6807 0 288.3808 0" style="fill:#fff;"/><rect x="337.1109" width="14.1171" height="56.0201" style="fill:#fff;"/><polygon points="26.05 16.5998 30.2416 20.7644 36.2424 20.7659 36.2424 17.5471 18.6949 .0005 .0752 0 .0752 9.1783 7.4957 16.5998 26.05 16.5998" style="fill:#35c1f1;"/><polygon points="53.6235 39.4203 49.4545 35.2543 43.5674 35.2543 43.5674 38.4729 61.1148 56.0195 79.7344 56.0201 79.7344 46.8417 72.312 39.4203 53.6235 39.4203" style="fill:#35c1f1;"/><polygon points="38.693 25.0686 19.3397 25.0686 0 44.4086 0 56.0201 13.6249 56.0201 38.693 30.9514 58.0462 30.9514 79.7344 9.2639 79.7344 0 63.7606 0 38.693 25.0686" style="fill:#35c1f1;"/><rect x="241.9159" y="40.0355" width="15.9846" height="15.9846" style="fill:#fff;"/></g></g></svg>